<svg width="1184" height="336" xmlns="http://www.w3.org/2000/svg" xmlns:xlink="http://www.w3.org/1999/xlink"><defs><filter id="a"><feColorMatrix in="SourceGraphic" values="0 0 0 0 1.000000 0 0 0 0 1.000000 0 0 0 0 1.000000 0 0 0 1.000000 0"/></filter><path id="b" d="M0 0h336v336H0z"/></defs><g filter="url(#a)" fill="#FFF" fill-rule="evenodd"><g fill="none"><mask id="c" fill="#fff"><use xlink:href="#b"/></mask><path d="M167.685 311.46c6.777 0 12.27 5.494 12.27 12.27 0 6.777-5.493 12.27-12.27 12.27-6.776 0-12.27-5.493-12.27-12.27 0-6.776 5.494-12.27 12.27-12.27zm-8.941-48.499c1.826 1.214 1.826 6.792 2.78 9.556l.146.411.174.467.265.68c1.27 3.21 3.566 8.315 3.907 8.735.156.297.985.525 1.984.525s1.828-.228 1.986-.526c.403-.497 3.56-7.593 4.49-10.292.954-2.764.954-8.342 2.78-9.556 1.186-.788 11.326-1.496 12.33 0 2.502 3.733-6.67 24.578-8.926 28.774a.414.414 0 00-.043.133c-.41.645-.662 1.503-.662 2.447 0 .978.27 1.865.709 2.516.118.5 3.268 4.39 9.452 11.672 5.526 5.726 8.62 10.162 9.283 13.31.44 2.088-1.576 2.509-3.094 2.691l-1.154.128-.24.022c-.884.074-1.358-.026-2.57-.832-2.083-1.386-5.647-6.071-9.984-10.812l-.237-.258c-1.305-1.418-2.558-2.856-3.955-4.195-2.29-2.817-5.99-4.647-10.165-4.647-4.176 0-7.877 1.831-10.166 4.65-1.27 1.216-2.422 2.515-3.6 3.806l-.827.903-.698.773-.683.769-.887 1.011-3.053 3.531c-1.819 2.09-3.329 3.738-4.428 4.47-1.261.838-1.724.912-2.681.821l-1.282-.14-.405-.054-.208-.032-.214-.04-.214-.044c-1.244-.277-2.397-.891-2.053-2.522.663-3.147 3.757-7.583 9.283-13.31l2.537-2.998 1.598-1.905c3.455-4.137 5.228-6.393 5.317-6.768.439-.65.709-1.538.709-2.516 0-.944-.251-1.802-.662-2.446a.395.395 0 00-.043-.134l-.144-.272-.155-.303-.255-.51-.274-.562-.39-.82c-3.264-6.952-9.878-23.068-7.707-26.307 1.003-1.496 11.143-.788 12.329 0zm-46.24-17.35c.974 1.964-1.815 6.795-2.371 9.665l-.08.43-.081.49c-.53 3.285-1.187 9.667-1.095 10.24-.014.336.59.947 1.456 1.447.865.5 1.696.717 1.983.538.597-.23 6.88-4.797 9.034-6.668 2.208-1.917 4.997-6.749 7.186-6.886 1.42-.09 10.556 4.367 10.677 6.164.3 4.485-18.065 17.951-22.117 20.456a.414.414 0 00-.104.094c-.677.353-1.324.971-1.796 1.788-.489.847-.699 1.75-.645 2.534-.147.492.636 5.437 2.35 14.834 1.923 7.722 2.385 13.111 1.385 16.168-.663 2.03-2.619 1.385-4.025.784l-1.063-.467-.22-.1c-.802-.378-1.162-.702-1.808-2.005-1.092-2.202-1.83-7.871-3.166-14.014l-.152-.684c-.42-1.88-.787-3.753-1.328-5.61-.574-3.585-2.863-7.02-6.48-9.107-3.616-2.089-7.736-2.353-11.128-1.057-1.709.418-3.355.968-5.021 1.496l-1.167.369-.991.321-.976.324-1.274.432-2.138.742c-3.653 1.275-6.66 2.34-8.34 2.446-1.513.096-1.95-.071-2.734-.629l-1.04-.762-.324-.25-.163-.131-.167-.14-.163-.146c-.938-.863-1.63-1.971-.517-3.211 2.148-2.394 7.046-4.69 14.695-6.885l3.696-1.328 3.403-1.244c4.37-1.614 6.677-2.55 6.923-2.81.704-.344 1.382-.978 1.871-1.825.472-.817.684-1.686.65-2.45a.395.395 0 00.03-.137l.011-.306.017-.34.034-.57.044-.623c.53-7.093 2.906-25.751 6.551-27.542 1.617-.794 10.044 4.89 10.677 6.165zm121.67-6.165c4.034 1.982 6.513 24.62 6.657 29.381a.414.414 0 00.03.138c-.034.763.178 1.632.65 2.45.489.846 1.166 1.48 1.872 1.824.352.374 5.026 2.168 14.02 5.382l.796.232c7.194 2.125 11.827 4.343 13.9 6.653 1.425 1.589-.11 2.96-1.334 3.878l-.936.688-.197.14c-.728.505-1.189.655-2.64.563-2.498-.159-7.927-2.434-14.053-4.371l-.335-.105c-1.839-.576-3.643-1.195-5.522-1.655-3.391-1.295-7.511-1.03-11.127 1.058-3.617 2.088-5.906 5.524-6.48 9.11-.492 1.688-.839 3.388-1.214 5.096l-.265 1.195-.217 1.019-.207 1.007-.263 1.319c-.935 4.779-1.59 8.875-2.479 10.669-.672 1.357-1.036 1.652-1.91 2.052l-1.18.52-.379.156-.196.076-.205.073c-1.272.44-2.699.585-3.246-1.09-1-3.056-.538-8.445 1.385-16.167l.697-3.865.578-3.297c.82-4.765 1.178-7.323 1.074-7.673.055-.782-.155-1.686-.644-2.533-.472-.817-1.119-1.435-1.797-1.787a.395.395 0 00-.103-.095l-.26-.163-.287-.184-.475-.314-.519-.35-.553-.38c-6.209-4.302-20.286-15.134-20.023-19.065.12-1.797 9.256-6.253 10.677-6.164 2.19.137 4.978 4.969 7.186 6.886l.332.283.385.317.42.338c2.684 2.14 7.385 5.533 7.9 5.73.284.179 1.115-.039 1.98-.538.822-.475 1.409-1.05 1.455-1.396l.01-.137c.04-1.049-.739-8.363-1.265-11.074-.556-2.87-3.345-7.701-2.37-9.665.633-1.276 9.06-6.959 10.677-6.165zm22.045 57.443c3.388 5.868 1.377 13.372-4.491 16.76-5.869 3.389-13.373 1.378-16.761-4.49-3.388-5.869-1.378-13.373 4.49-16.761 5.87-3.388 13.373-1.378 16.762 4.49zm-160.222-4.806c5.869 3.388 7.88 10.892 4.491 16.761-3.388 5.868-10.892 7.88-16.76 4.491-5.869-3.388-7.88-10.892-4.491-16.76 3.388-5.87 10.892-7.88 16.76-4.492zm185.49-73.18c.025.04.057.074.094.105.353.677.971 1.324 1.788 1.796.847.489 1.75.699 2.534.645.492.147 5.437-.636 14.834-2.35 7.722-1.923 13.111-2.385 16.168-1.385 2.03.663 1.385 2.619.784 4.025l-.467 1.063-.1.22c-.378.802-.702 1.162-2.005 1.808-2.202 1.092-7.871 1.83-14.014 3.166l-.684.152c-1.88.42-3.753.787-5.61 1.328-3.585.574-7.02 2.863-9.107 6.48-2.089 3.616-2.353 7.736-1.057 11.128.418 1.709.968 3.355 1.496 5.021l.369 1.167.321.991.324.976.432 1.274.742 2.138c1.275 3.653 2.34 6.66 2.446 8.34.096 1.513-.071 1.95-.629 2.734l-.762 1.04-.25.324-.131.163-.14.167-.146.163c-.863.938-1.971 1.63-3.211.517-2.394-2.148-4.69-7.046-6.885-14.695l-1.328-3.696-1.244-3.403c-1.614-4.37-2.55-6.677-2.81-6.923-.344-.704-.978-1.382-1.825-1.871-.817-.472-1.686-.684-2.45-.65a.395.395 0 00-.137-.03l-.306-.011-.34-.017-.57-.034-.623-.044c-7.093-.53-25.751-2.906-27.542-6.551-.794-1.617 4.89-10.044 6.165-10.677 1.964-.975 6.795 1.814 9.665 2.37l.43.08.49.081c3.285.53 9.667 1.187 10.24 1.095.336.014.947-.59 1.447-1.456.5-.865.717-1.696.538-1.983-.23-.597-4.797-6.88-6.668-9.034-1.917-2.208-6.749-4.997-6.886-7.186-.09-1.42 4.367-10.556 6.164-10.677 4.485-.3 17.951 18.065 20.456 22.117zM74.97 196.788c1.797.12 6.253 9.256 6.164 10.677-.137 2.19-4.969 4.978-6.886 7.186l-.283.332-.317.385-.338.42c-2.14 2.684-5.533 7.385-5.73 7.9-.179.284.039 1.115.538 1.98.475.822 1.05 1.409 1.396 1.455l.137.01c1.049.04 8.363-.739 11.074-1.265 2.87-.556 7.701-3.345 9.665-2.37 1.276.633 6.959 9.06 6.165 10.677-1.982 4.034-24.62 6.513-29.381 6.657a.414.414 0 00-.138.03c-.763-.034-1.632.178-2.45.65-.846.489-1.48 1.166-1.824 1.872-.374.352-2.168 5.026-5.382 14.02l-.232.796c-2.125 7.194-4.343 11.827-6.653 13.9-1.589 1.425-2.96-.11-3.878-1.334l-.687-.936-.14-.197c-.506-.728-.656-1.189-.564-2.64.159-2.498 2.434-7.927 4.371-14.053l.105-.335c.576-1.839 1.195-3.643 1.655-5.522 1.295-3.391 1.03-7.511-1.058-11.127-2.088-3.617-5.524-5.906-9.11-6.48-1.688-.492-3.388-.839-5.096-1.214l-1.195-.265-1.019-.217-1.007-.207-1.319-.263c-4.779-.935-8.875-1.59-10.669-2.479-1.357-.672-1.652-1.036-2.052-1.91l-.52-1.18-.156-.379-.076-.196-.073-.205c-.44-1.272-.585-2.699 1.09-3.246 3.056-1 8.445-.538 16.167 1.385l3.865.697 3.297.578c4.765.82 7.323 1.178 7.673 1.074.782.055 1.686-.155 2.533-.644.817-.472 1.435-1.119 1.787-1.797a.395.395 0 00.095-.103l.163-.26.184-.287.314-.475.35-.519.38-.553c4.302-6.209 15.134-20.286 19.065-20.023zm233.875 38.725c5.868 3.388 7.88 10.892 4.491 16.76-3.388 5.869-10.892 7.88-16.76 4.491-5.87-3.388-7.88-10.892-4.492-16.76 3.388-5.869 10.892-7.88 16.761-4.491zm-265.242 3.946c3.388 5.868 1.378 13.372-4.49 16.76-5.87 3.389-13.373 1.378-16.762-4.49-3.388-5.869-1.377-13.373 4.491-16.761 5.869-3.388 13.373-1.378 16.761 4.49zm280.902-99.763l.128 1.154.022.24c.074.884-.026 1.358-.832 2.57-1.386 2.083-6.071 5.647-10.812 9.984l-.258.237c-1.418 1.305-2.856 2.558-4.195 3.955-2.817 2.29-4.647 5.99-4.647 10.165 0 4.176 1.831 7.877 4.65 10.166 1.216 1.27 2.515 2.422 3.806 3.6l.903.827.773.698.769.683 1.011.887 3.531 3.053c2.09 1.819 3.738 3.329 4.47 4.428.838 1.261.912 1.724.821 2.681l-.14 1.282-.054.405-.032.208-.04.214-.044.214c-.277 1.244-.891 2.397-2.522 2.053-3.147-.663-7.583-3.757-13.31-9.283l-2.998-2.537-1.905-1.598c-4.137-3.455-6.393-5.228-6.768-5.317-.65-.439-1.538-.709-2.516-.709-.944 0-1.802.251-2.446.662a.395.395 0 00-.134.043l-.272.144-.303.155-.51.255-.562.274-.82.39c-6.952 3.264-23.068 9.878-26.307 7.707-1.496-1.003-.788-11.143 0-12.329 1.214-1.826 6.792-1.826 9.556-2.78l.411-.146.467-.174.68-.265c3.21-1.27 8.315-3.566 8.735-3.907.297-.156.525-.985.525-1.984s-.228-1.828-.526-1.986c-.497-.403-7.593-3.56-10.292-4.49-2.764-.954-8.342-.954-9.556-2.78-.788-1.186-1.496-11.326 0-12.33 3.733-2.502 24.578 6.67 28.774 8.926a.414.414 0 00.133.043c.645.41 1.503.662 2.447.662.978 0 1.865-.27 2.516-.709.5-.118 4.39-3.268 11.672-9.452 5.726-5.526 10.162-8.62 13.31-9.283 2.088-.44 2.509 1.576 2.691 3.094zm-310.316-3.094c3.147.663 7.583 3.757 13.31 9.283l2.998 2.537 1.905 1.598c4.137 3.455 6.393 5.228 6.768 5.317.65.439 1.538.709 2.516.709.944 0 1.802-.251 2.446-.662a.395.395 0 00.134-.043l.272-.144.303-.155.51-.255.562-.274.82-.39c6.952-3.264 23.068-9.878 26.307-7.707 1.496 1.003.788 11.143 0 12.329-1.214 1.826-6.792 1.826-9.556 2.78l-.411.146-.467.174-.68.265c-3.21 1.27-8.315 3.566-8.735 3.907-.297.156-.525.985-.525 1.984s.228 1.828.526 1.986c.497.403 7.593 3.56 10.292 4.49 2.764.954 8.342.954 9.556 2.78.788 1.186 1.496 11.326 0 12.33-3.733 2.502-24.578-6.67-28.774-8.926a.414.414 0 00-.133-.043c-.645-.41-1.503-.662-2.447-.662-.978 0-1.865.27-2.516.709-.5.118-4.39 3.268-11.672 9.452-5.726 5.526-10.162 8.62-13.31 9.283-2.088.44-2.509-1.576-2.691-3.094l-.128-1.154-.022-.24c-.074-.884.026-1.358.832-2.57 1.386-2.083 6.071-5.647 10.812-9.984l.258-.237c1.418-1.305 2.856-2.558 4.195-3.955 2.817-2.29 4.647-5.99 4.647-10.165 0-4.176-1.831-7.877-4.65-10.166-1.216-1.27-2.515-2.422-3.806-3.6l-.903-.827-.773-.698-.769-.683-1.011-.887-3.531-3.053c-2.09-1.819-3.738-3.329-4.47-4.428-.838-1.261-.912-1.724-.821-2.681l.14-1.282.054-.405.032-.208.04-.214.044-.214c.277-1.244.891-2.397 2.522-2.053zm309.542 19.444c6.777 0 12.27 5.493 12.27 12.27 0 6.776-5.493 12.27-12.27 12.27-6.776 0-12.27-5.494-12.27-12.27 0-6.777 5.494-12.27 12.27-12.27zm-311.46-.63c6.776 0 12.27 5.494 12.27 12.27 0 6.777-5.494 12.27-12.27 12.27-6.777 0-12.27-5.493-12.27-12.27 0-6.776 5.493-12.27 12.27-12.27zm277.114-90.18l.688.936.14.197c.505.728.655 1.189.563 2.64-.159 2.498-2.434 7.927-4.371 14.053l-.105.335c-.576 1.839-1.195 3.643-1.655 5.522-1.295 3.391-1.03 7.511 1.058 11.127 2.088 3.617 5.524 5.906 9.11 6.48 1.688.492 3.388.839 5.096 1.214l1.195.265 1.019.217 1.007.207 1.319.263c4.779.935 8.875 1.59 10.669 2.479 1.357.672 1.652 1.036 2.052 1.91l.52 1.18.156.379.076.196.073.205c.44 1.272.585 2.699-1.09 3.246-3.056 1-8.445.538-16.167-1.385l-3.865-.697-3.297-.578c-4.765-.82-7.323-1.178-7.673-1.074-.782-.055-1.686.155-2.533.644-.817.472-1.435 1.119-1.787 1.797a.395.395 0 00-.095.103l-.163.26-.184.287-.314.475-.35.519-.38.553c-4.302 6.209-15.134 20.286-19.065 20.023-1.797-.12-6.253-9.256-6.164-10.677.137-2.19 4.969-4.978 6.886-7.186l.283-.332.317-.385.338-.42c2.14-2.684 5.533-7.385 5.73-7.9.179-.284-.039-1.115-.538-1.98-.475-.822-1.05-1.409-1.396-1.455l-.137-.01c-1.049-.04-8.363.739-11.074 1.265-2.87.556-7.701 3.345-9.665 2.37-1.276-.633-6.959-9.06-6.165-10.677 1.982-4.034 24.62-6.513 29.381-6.657a.414.414 0 00.138-.03c.763.034 1.632-.178 2.45-.65.846-.489 1.48-1.166 1.824-1.872.374-.352 2.168-5.026 5.382-14.02l.232-.796c2.125-7.194 4.343-11.827 6.653-13.9 1.589-1.425 2.96.11 3.878 1.334zm-238.89-1.334c2.394 2.148 4.69 7.046 6.885 14.695l1.328 3.696 1.244 3.403c1.614 4.37 2.55 6.677 2.81 6.923.344.704.978 1.382 1.825 1.871.817.472 1.686.684 2.45.65.044.018.09.028.137.03l.306.011.34.017.57.034.623.044c7.093.53 25.751 2.906 27.542 6.551.794 1.617-4.89 10.044-6.165 10.677-1.964.975-6.795-1.814-9.665-2.37l-.43-.08-.49-.081c-3.285-.53-9.667-1.187-10.24-1.095-.336-.014-.947.59-1.447 1.456-.5.865-.717 1.696-.538 1.983.23.597 4.797 6.88 6.668 9.034 1.917 2.208 6.749 4.997 6.886 7.186.09 1.42-4.367 10.556-6.164 10.677-4.485.3-17.951-18.065-20.456-22.117a.414.414 0 00-.094-.104c-.353-.677-.971-1.324-1.788-1.796-.847-.489-1.75-.699-2.534-.645-.492-.147-5.437.636-14.834 2.35-7.722 1.923-13.111 2.385-16.168 1.385-2.03-.663-1.385-2.619-.784-4.025l.467-1.063.1-.22c.378-.802.702-1.162 2.005-1.808 2.202-1.092 7.871-1.83 14.014-3.166l.684-.152c1.88-.42 3.753-.787 5.61-1.328 3.585-.574 7.02-2.863 9.107-6.48 2.089-3.616 2.353-7.736 1.057-11.128-.418-1.709-.968-3.355-1.496-5.021l-.369-1.167-.321-.991-.324-.976-.432-1.274-.742-2.138c-1.275-3.653-2.34-6.66-2.446-8.34-.096-1.513.071-1.95.629-2.734l.762-1.04.25-.324.131-.163.14-.167.146-.163c.863-.938 1.971-1.63 3.211-.517zm263.155 20.37c3.388 5.869 1.377 13.373-4.491 16.761-5.869 3.388-13.373 1.378-16.761-4.49-3.388-5.87-1.378-13.373 4.49-16.762 5.87-3.388 13.373-1.377 16.762 4.491zM39.426 79.237c5.868 3.388 7.879 10.892 4.49 16.76-3.387 5.869-10.891 7.88-16.76 4.491-5.868-3.388-7.88-10.892-4.491-16.76 3.388-5.869 10.892-7.88 16.76-4.491zM221.739 18.31l1.063.467.22.1c.802.378 1.162.702 1.808 2.005 1.092 2.202 1.83 7.871 3.166 14.014l.152.684c.42 1.88.787 3.753 1.328 5.61.574 3.585 2.863 7.02 6.48 9.107 3.616 2.089 7.736 2.353 11.128 1.057 1.709-.418 3.355-.968 5.021-1.496l1.167-.369.991-.321.976-.324 1.274-.432 2.138-.742c3.653-1.275 6.66-2.34 8.34-2.446 1.513-.096 1.95.071 2.734.629l1.04.762.324.25.163.131.167.14.163.146c.938.863 1.63 1.971.517 3.211-2.148 2.394-7.046 4.69-14.695 6.885l-3.696 1.328-3.403 1.244c-4.37 1.614-6.677 2.55-6.923 2.81-.704.344-1.382.978-1.871 1.825-.472.817-.684 1.686-.65 2.45a.395.395 0 00-.03.137l-.011.306-.017.34-.034.57-.044.623c-.53 7.093-2.906 25.751-6.551 27.542-1.617.794-10.044-4.89-10.677-6.165-.975-1.964 1.814-6.795 2.37-9.665l.08-.43.081-.49c.53-3.285 1.187-9.667 1.095-10.24.014-.336-.59-.947-1.456-1.447-.865-.5-1.696-.717-1.983-.538-.597.23-6.88 4.797-9.034 6.668-2.208 1.917-4.997 6.749-7.186 6.886-1.42.09-10.556-4.367-10.677-6.164-.3-4.485 18.065-17.951 22.117-20.456a.414.414 0 00.104-.094c.677-.353 1.324-.971 1.796-1.788.489-.847.699-1.75.645-2.534.147-.492-.636-5.437-2.35-14.834-1.923-7.722-2.385-13.111-1.385-16.168.663-2.03 2.619-1.385 4.025-.784zm-103.453.784c1 3.057.538 8.446-1.385 16.168l-.697 3.865-.578 3.297c-.82 4.765-1.178 7.323-1.074 7.673-.055.782.155 1.686.644 2.533.472.817 1.119 1.435 1.797 1.787a.42.42 0 00.103.095l.26.163.287.184.475.314.519.35.553.38c6.209 4.302 20.286 15.134 20.023 19.065-.12 1.797-9.256 6.253-10.677 6.164-2.19-.137-4.978-4.969-7.186-6.886l-.332-.283-.385-.317-.42-.338c-2.684-2.14-7.385-5.533-7.9-5.73-.284-.179-1.115.039-1.98.538-.822.475-1.409 1.05-1.455 1.396l-.01.137c-.04 1.049.739 8.363 1.265 11.074.556 2.87 3.345 7.701 2.37 9.665-.633 1.276-9.06 6.959-10.677 6.165-4.034-1.982-6.513-24.62-6.657-29.381a.414.414 0 00-.03-.138c.034-.763-.178-1.632-.65-2.45-.489-.846-1.166-1.48-1.872-1.824-.352-.374-5.026-2.168-14.02-5.382l-.796-.232c-7.194-2.125-11.827-4.343-13.9-6.653-1.425-1.589.11-2.96 1.334-3.878l.936-.687.197-.14c.728-.506 1.189-.656 2.64-.564 2.498.159 7.927 2.434 14.053 4.371l.335.105c1.839.576 3.643 1.195 5.522 1.655 3.391 1.295 7.511 1.03 11.127-1.058 3.617-2.088 5.906-5.524 6.48-9.11.492-1.688.839-3.388 1.214-5.096l.265-1.195.217-1.019.207-1.007.263-1.319c.935-4.779 1.59-8.875 2.479-10.669.672-1.357 1.036-1.652 1.91-2.052l1.18-.52.379-.156.196-.076.205-.073c1.272-.44 2.699-.585 3.246 1.09zm76.737-7.74l1.282.14.405.055.208.032.214.04.214.044c1.244.277 2.397.891 2.053 2.522-.663 3.147-3.757 7.583-9.283 13.31l-2.537 2.998-1.598 1.905c-3.455 4.137-5.228 6.393-5.317 6.768-.439.65-.709 1.538-.709 2.516 0 .944.251 1.802.662 2.446.007.049.02.093.043.134l.144.272.155.303.255.51.274.562.39.82c3.264 6.952 9.878 23.068 7.707 26.307-1.003 1.496-11.143.788-12.329 0-1.826-1.214-1.826-6.792-2.78-9.556l-.146-.411-.174-.467-.265-.68c-1.27-3.21-3.566-8.315-3.907-8.735-.156-.297-.985-.525-1.984-.525s-1.828.228-1.986.526c-.403.497-3.56 7.593-4.49 10.292-.954 2.764-.954 8.342-2.78 9.556-1.186.788-11.326 1.496-12.33 0-2.502-3.733 6.67-24.578 8.926-28.774a.414.414 0 00.043-.133c.41-.645.662-1.503.662-2.447 0-.978-.27-1.865-.709-2.516-.118-.5-3.268-4.39-9.452-11.672-5.526-5.726-8.62-10.162-9.283-13.31-.44-2.088 1.576-2.509 3.094-2.691l1.154-.128.24-.022c.884-.074 1.358.026 2.57.832 2.083 1.386 5.647 6.071 9.984 10.812l.237.258c1.305 1.418 2.558 2.856 3.955 4.195 2.29 2.817 5.99 4.647 10.165 4.647 4.176 0 7.877-1.831 10.166-4.65 1.27-1.216 2.422-2.515 3.6-3.806l.827-.903.698-.773.683-.769.887-1.011 3.053-3.531c1.819-2.09 3.329-3.738 4.428-4.47 1.261-.838 1.724-.912 2.681-.821zm57.25 11.31c5.868 3.388 7.879 10.892 4.49 16.76-3.388 5.87-10.892 7.88-16.76 4.492-5.869-3.388-7.88-10.892-4.491-16.761 3.388-5.868 10.892-7.88 16.76-4.491zm-151.24 4.176c3.388 5.869 1.378 13.373-4.49 16.761-5.87 3.388-13.373 1.378-16.762-4.49-3.388-5.87-1.377-13.373 4.491-16.762 5.869-3.388 13.373-1.377 16.761 4.491zM168.315 0c6.776 0 12.27 5.493 12.27 12.27 0 6.776-5.494 12.27-12.27 12.27-6.777 0-12.27-5.494-12.27-12.27 0-6.777 5.493-12.27 12.27-12.27z" fill="#000" mask="url(#c)"/><path d="M404.21 151.5c5.08 0 9.59-1.074 13.536-3.223 3.945-2.148 7.012-5.37 9.2-9.668 2.187-4.297 3.28-9.687 3.28-16.172v-14.414c0-4.375.04-7.968.118-10.78l.176-6.388c.039-1.445.097-2.285.175-2.52l7.266-1.757-.352-4.922H413.82l-.351 4.922 8.203 1.758c.156.39.273 1.426.351 3.105a360.01 360.01 0 01.352 16.582v13.36c0 5-.664 9.082-1.992 12.246-1.328 3.164-3.242 5.469-5.742 6.914-2.5 1.445-5.47 2.168-8.907 2.168-3.593 0-6.718-.723-9.375-2.168-2.656-1.445-4.707-3.691-6.152-6.738-1.445-3.047-2.168-6.993-2.168-11.836V104.64c.005-3.322.024-6.041.059-8.16.039-2.382.097-4.218.175-5.507.079-1.29.118-2.168.118-2.637l7.265-1.758-.234-4.922h-26.953l-.352 4.922 7.383 1.758c.078.234.137.976.176 2.226l.176 5.625c.078 2.5.117 5.743.117 9.727v17.695c0 8.907 2.46 15.782 7.383 20.625 4.921 4.844 11.875 7.266 20.859 7.266zm68.814-1.055l.235-4.804L463.063 144c-.078-.781-.156-1.992-.234-3.633a513.21 513.21 0 01-.235-5.683c-.078-2.149-.156-4.356-.234-6.622l-.117-10.43c1.016-2.187 2.168-4.062 3.457-5.624.937-1.137 1.865-2.108 2.781-2.913l.142-.122.212.166c.672.51 1.35.926 2.031 1.25l.342.154c1.367.586 2.832.879 4.394.879 2.032 0 3.77-.547 5.215-1.64 1.445-1.095 2.168-2.657 2.168-4.688 0-2.032-.664-3.535-1.992-4.512-1.328-.977-2.969-1.465-4.922-1.465-2.266 0-4.57.781-6.914 2.344-2.344 1.562-4.688 4.57-7.031 9.023l-.352-.117.469-9.61-2.11-1.757-17.226 4.687v4.336l7.5 1.641c.312 1.563.547 3.496.703 5.8.156 2.306.234 4.747.234 7.325v9.023a136.597 136.597 0 01-.351 10.196c-.078 1.015-.156 1.68-.234 1.992l-7.266 1.875.351 4.57h29.18zm37.704.938c5.625 0 10.703-1.25 15.234-3.75 4.531-2.5 8.086-5.899 10.664-10.196 2.578-4.296 3.867-9.18 3.867-14.648 0-5.078-.996-9.394-2.988-12.95-1.992-3.554-4.629-6.288-7.91-8.202-3.281-1.914-6.875-2.871-10.781-2.871-3.36 0-6.485.84-9.375 2.52-2.891 1.679-5.235 3.769-7.032 6.269l-.351-.118c.156-6.25.254-11.503.293-15.761.039-4.258.117-8.008.234-11.25.117-3.242.254-6.465.41-9.668L500.298 69l-18.281 5.156.234 4.102 8.672 1.055c.078.78.137 2.148.176 4.101.039 1.953.078 4.258.117 6.914.039 2.656.078 5.508.117 8.555.04 3.047.059 6.055.059 9.023v25.254c0 2.227-.02 4.453-.059 6.68a190.23 190.23 0 01-.293 7.441c2.89 1.25 6.035 2.246 9.434 2.989a47.925 47.925 0 0010.254 1.113zm2.695-6.797c-2.266 0-4.336-.313-6.21-.938-1.876-.625-3.517-1.484-4.923-2.578v-27.773c1.485-1.875 3.223-3.281 5.215-4.219a14.552 14.552 0 016.27-1.406c4.062 0 7.539 1.426 10.43 4.277 2.89 2.852 4.296 7.324 4.218 13.418-.078 6.25-1.543 11.016-4.395 14.297-2.851 3.281-6.386 4.922-10.605 4.922zm71.696 6.797c.78 0 1.68-.137 2.695-.41a29.662 29.662 0 003.281-1.114l6.328-2.578v-3.984l-7.5-1.406c-.312-.703-.527-1.739-.644-3.106a54.684 54.684 0 01-.176-4.629l.352-18.515c-.079-5.079-1.973-9.16-5.684-12.246-3.711-3.086-8.613-4.63-14.707-4.63-2.031.313-4.18.9-6.445 1.758a33.754 33.754 0 00-6.387 3.223c-1.992 1.29-3.633 2.637-4.922 4.043-1.29 1.406-1.934 2.773-1.934 4.102 0 2.109 1.075 3.613 3.223 4.511 2.148.899 4.785.996 7.91.293l.352-5.625c.156-2.187.566-3.652 1.23-4.394s1.817-1.114 3.457-1.114c2.344 0 4.453.47 6.328 1.407s3.38 2.187 4.512 3.75c1.133 1.562 1.7 3.242 1.7 5.039v5.39l-18.048 5.86c-3.906 1.25-6.699 2.754-8.378 4.512-1.68 1.757-2.52 3.964-2.52 6.62 0 2.032.664 4.063 1.992 6.094 1.328 2.032 3.242 3.73 5.742 5.098 2.5 1.367 5.391 2.05 8.672 2.05 2.422 0 4.864-.76 7.324-2.284 1.882-1.165 3.776-2.73 5.68-4.695l.33-.346.963 3.107c.83 2.719 2.501 4.124 5.01 4.214l.264.005zm-15.47-8.086c-2.265 0-4.218-.762-5.859-2.285-1.64-1.524-2.46-3.262-2.46-5.215 0-1.563.41-2.832 1.23-3.809.82-.976 2.168-1.699 4.043-2.168l11.484-2.812v12.07c-1.25 1.406-2.578 2.461-3.984 3.164a9.828 9.828 0 01-4.453 1.055zm56.881 7.148l.352-4.57-7.266-1.875c-.156-.703-.293-2.188-.41-4.453-.117-2.266-.176-5.04-.176-8.32v-17.579c1.484-2.03 3.242-3.613 5.273-4.746 2.032-1.132 4.258-1.699 6.68-1.699 1.875 0 3.653.45 5.332 1.348 1.68.898 3.067 2.344 4.16 4.336 1.094 1.992 1.641 4.629 1.641 7.91v11.719c0 1.875-.02 3.574-.059 5.097a82.168 82.168 0 01-.175 3.867c-.079 1.055-.196 1.895-.352 2.52l-6.797 1.875.352 4.57h25.547l.234-4.57L653.6 144c-.156-.703-.293-2.207-.41-4.512a149.618 149.618 0 01-.176-7.558v-12.54c0-4.609-.8-8.437-2.402-11.484-1.601-3.047-3.691-5.332-6.27-6.855-2.578-1.524-5.39-2.285-8.437-2.285-3.125 0-6.055.703-8.789 2.109-2.734 1.406-5.43 3.594-8.086 6.563l-.352-.118.704-6.445L616.92 99l-17.344 4.688v4.335l7.5 1.641c.312 1.563.547 3.496.703 5.8.156 2.306.234 4.747.234 7.325l-.117 9.023c0 2.5-.02 4.57-.058 6.211-.04 1.641-.098 2.95-.176 3.926-.078.977-.156 1.66-.235 2.051l-7.265 1.875.351 4.57h26.016zm76.073 0l.235-4.922-7.266-1.64 5.093-14.582.838-.028 2.403-.078 2.389-.078a241.739 241.739 0 0115 0c1.23.04 2.436.069 3.618.088l.922.013 5.948 14.665-7.265 1.64.234 4.922h26.133l.351-4.922-5.86-1.64-26.015-64.336-7.851 4.57-23.907 59.766-5.976 1.64.351 4.922h20.625zm11.133-27.422c-3.593 0-6.562-.058-8.906-.175l-1.447-.073-.363-.018 9.663-26.397 10.783 26.448-.346.016-.477.024c-2.422.117-5.391.175-8.907.175zm64.862 27.422l.234-4.687-7.617-1.758c-.156-.86-.293-3.184-.41-6.973a428.587 428.587 0 01-.176-13.066l.117-18.399c0-5.546.02-10.312.059-14.296.039-3.985.117-7.579.234-10.782.117-3.203.215-6.445.293-9.726L768.754 69l-18.633 5.156.235 4.102 8.671 1.172c.079.86.137 2.285.176 4.277.04 1.992.078 4.336.117 7.031.04 2.696.078 5.528.118 8.496.039 2.97.058 5.86.058 8.672v14.766c0 3.75-.02 7.11-.058 10.078-.04 2.969-.098 5.39-.176 7.266-.078 1.875-.196 3.203-.352 3.984l-7.617 1.758.352 4.687h26.953zm30.515 0l.234-4.687L801.73 144c-.156-.86-.293-3.184-.41-6.973a428.08 428.08 0 01-.176-13.066l.118-18.399c0-5.546.02-10.312.058-14.296.04-3.985.117-7.579.235-10.782.117-3.203.214-6.445.292-9.726L799.27 69l-18.632 5.156.234 4.102 8.672 1.172c.078.86.137 2.285.176 4.277.039 1.992.078 4.336.117 7.031.039 2.696.078 5.528.117 8.496.039 2.97.059 5.86.059 8.672v15.624c-.004 3.406-.023 6.48-.06 9.22-.038 2.969-.097 5.39-.175 7.266-.078 1.875-.195 3.203-.351 3.984l-7.618 1.758.352 4.687h26.953zM826.27 86.93c2.344 0 4.238-.743 5.684-2.227 1.445-1.484 2.168-3.32 2.168-5.508 0-2.11-.723-3.925-2.168-5.449-1.446-1.523-3.34-2.285-5.684-2.285-2.344 0-4.277.762-5.8 2.285-1.524 1.524-2.286 3.34-2.286 5.45 0 2.187.762 4.023 2.285 5.507 1.524 1.484 3.457 2.227 5.801 2.227zm13.594 63.515l.351-4.687-7.851-1.758c-.234-.625-.41-2.11-.527-4.453-.118-2.344-.176-5.117-.176-8.32V116.46c0-3.203.058-6.016.176-8.438.117-2.421.293-4.843.527-7.265L830.136 99l-18.28 4.688v4.335l7.85 1.641c.313 1.563.548 3.535.704 5.918.156 2.383.234 5.02.234 7.91l-.117 8.32c0 2.657-.02 4.825-.059 6.504-.039 1.68-.097 2.97-.175 3.868-.079.898-.157 1.504-.235 1.816l-7.851 1.758.351 4.687h27.305zm42.503.938c.782 0 1.68-.137 2.696-.41a29.662 29.662 0 003.28-1.114l6.329-2.578v-3.984l-7.5-1.406c-.312-.703-.527-1.739-.644-3.106a54.684 54.684 0 01-.176-4.629l.351-18.515c-.078-5.079-1.972-9.16-5.683-12.246-3.711-3.086-8.614-4.63-14.707-4.63-2.032.313-4.18.9-6.446 1.758a33.754 33.754 0 00-6.386 3.223c-1.993 1.29-3.633 2.637-4.922 4.043-1.29 1.406-1.934 2.773-1.934 4.102 0 2.109 1.074 3.613 3.223 4.511 2.148.899 4.785.996 7.91.293l.352-5.625c.156-2.187.566-3.652 1.23-4.394s1.816-1.114 3.457-1.114c2.344 0 4.453.47 6.328 1.407s3.38 2.187 4.512 3.75c1.133 1.562 1.7 3.242 1.7 5.039v5.39l-18.048 5.86c-3.906 1.25-6.699 2.754-8.379 4.512-1.68 1.757-2.52 3.964-2.52 6.62 0 2.032.665 4.063 1.993 6.094 1.328 2.032 3.242 3.73 5.742 5.098 2.5 1.367 5.39 2.05 8.672 2.05 2.422 0 4.863-.76 7.324-2.284 1.882-1.165 3.775-2.73 5.68-4.695l.33-.346.963 3.107c.83 2.719 2.5 4.124 5.01 4.214l.263.005zm-15.468-8.086c-2.266 0-4.22-.762-5.86-2.285-1.64-1.524-2.46-3.262-2.46-5.215 0-1.563.41-2.832 1.23-3.809.82-.976 2.168-1.699 4.043-2.168l11.484-2.812v12.07c-1.25 1.406-2.578 2.461-3.984 3.164a9.828 9.828 0 01-4.453 1.055zm56.88 7.148l.351-4.57-7.265-1.875c-.156-.703-.293-2.188-.41-4.453-.118-2.266-.176-5.04-.176-8.32v-17.579c1.484-2.03 3.242-3.613 5.273-4.746 2.032-1.132 4.258-1.699 6.68-1.699 1.875 0 3.652.45 5.332 1.348 1.68.898 3.066 2.344 4.16 4.336 1.094 1.992 1.64 4.629 1.64 7.91v11.719c0 1.875-.019 3.574-.058 5.097a82.166 82.166 0 01-.176 3.867c-.078 1.055-.195 1.895-.351 2.52l-6.797 1.875.352 4.57h25.546l.235-4.57-7.266-1.875c-.156-.703-.293-2.207-.41-4.512a149.617 149.617 0 01-.176-7.558v-12.54c0-4.609-.8-8.437-2.402-11.484-1.602-3.047-3.692-5.332-6.27-6.855-2.578-1.524-5.39-2.285-8.437-2.285-3.125 0-6.055.703-8.79 2.109-2.734 1.406-5.429 3.594-8.085 6.563l-.352-.118.703-6.445L914.17 99l-17.344 4.688v4.335l7.5 1.641c.312 1.563.547 3.496.703 5.8.156 2.306.234 4.747.234 7.325l-.117 9.023c0 2.5-.02 4.57-.059 6.211-.039 1.641-.097 2.95-.175 3.926-.078.977-.157 1.66-.235 2.051l-7.265 1.875.351 4.57h26.016zm64.068.938c4.375 0 8.34-1.074 11.895-3.223 3.554-2.148 6.425-5.37 8.613-9.668l-3.281-2.93c-2.032 2.422-4.121 4.16-6.27 5.215-2.148 1.055-4.59 1.582-7.324 1.582-4.61 0-8.457-1.62-11.543-4.863-3.086-3.242-4.629-7.95-4.629-14.121 0-4.766.86-8.633 2.578-11.602 1.719-2.968 3.926-5.078 6.621-6.328 1.47-.682 2.958-1.084 4.463-1.208l.155-.01 5.753 5.554c1.306 1.234 2.41 2.113 3.312 2.64l.204.114c.938.508 2.11.762 3.516.762 1.484 0 2.695-.43 3.632-1.29.938-.859 1.407-2.07 1.407-3.632 0-1.719-.684-3.3-2.051-4.746-1.367-1.445-3.281-2.617-5.742-3.516-2.461-.898-5.41-1.347-8.848-1.347-5.234 0-9.922 1.23-14.062 3.691-4.141 2.461-7.403 5.762-9.786 9.902-2.382 4.141-3.574 8.75-3.574 13.828 0 5.079 1.133 9.512 3.399 13.301 2.265 3.79 5.293 6.719 9.082 8.79 3.789 2.07 7.949 3.105 12.48 3.105zm48.517 0c4.375 0 8.34-1.055 11.895-3.164 3.555-2.11 6.426-5.313 8.613-9.61l-3.164-2.93c-2.031 2.5-4.14 4.258-6.328 5.274-2.187 1.016-4.61 1.524-7.266 1.524-5 0-9.062-1.758-12.187-5.274-2.85-3.205-4.4-7.482-4.651-12.831l-.012-.294h33.374v-2.344c0-7.03-1.758-12.597-5.274-16.699-3.515-4.101-8.476-6.191-14.882-6.27-4.375-.078-8.457 1.016-12.246 3.282-3.79 2.266-6.856 5.43-9.2 9.492-2.343 4.063-3.515 8.867-3.515 14.414 0 5.078 1.093 9.531 3.281 13.36 2.187 3.828 5.156 6.796 8.906 8.906 3.75 2.11 7.969 3.164 12.656 3.164zm9.844-32.813h-22.877l.018-.234c.205-2.406.698-4.506 1.477-6.3l.171-.38c1.172-2.5 2.696-4.375 4.57-5.625 1.876-1.25 3.868-1.875 5.977-1.875 3.36 0 5.977 1.192 7.852 3.574 1.875 2.383 2.812 5.645 2.812 9.786v1.054zM394.133 253.383c4.687 0 8.945-1.192 12.773-3.574 3.828-2.383 6.875-5.606 9.14-9.668 2.266-4.063 3.4-8.594 3.4-13.594 0-5.078-1.055-9.55-3.165-13.418-2.11-3.867-5.02-6.895-8.73-9.082-3.711-2.188-8.028-3.281-12.95-3.281-4.765 0-9.16 1.093-13.183 3.28-4.023 2.188-7.266 5.255-9.727 9.2-2.46 3.945-3.691 8.613-3.691 14.004 0 5.078 1.094 9.59 3.281 13.535 2.188 3.945 5.254 7.031 9.2 9.258 3.945 2.227 8.496 3.34 13.652 3.34zm1.172-6.094c-2.813 0-5.352-.957-7.618-2.871-2.265-1.914-4.023-4.55-5.273-7.91-1.25-3.36-1.875-7.188-1.875-11.485 0-5.546 1.152-10 3.457-13.359 2.305-3.36 5.332-5.039 9.082-5.039 4.219 0 7.617 2.09 10.195 6.27 2.579 4.18 3.868 9.667 3.868 16.464 0 3.516-.489 6.641-1.465 9.375-.977 2.735-2.344 4.844-4.102 6.328-1.758 1.485-3.847 2.227-6.27 2.227zm55.85 5.156l.352-4.57L444.24 246c-.156-.703-.293-2.188-.41-4.453-.117-2.266-.176-5.04-.176-8.32v-17.579c1.484-2.03 3.242-3.613 5.274-4.746 2.03-1.132 4.257-1.699 6.68-1.699 1.874 0 3.652.45 5.331 1.348 1.68.898 3.067 2.344 4.16 4.336 1.094 1.992 1.641 4.629 1.641 7.91v11.719c0 1.875-.02 3.574-.059 5.097a82.167 82.167 0 01-.175 3.867c-.078 1.055-.196 1.895-.352 2.52l-6.797 1.875.352 4.57h25.547l.234-4.57-7.266-1.875c-.156-.703-.293-2.207-.41-4.512a149.617 149.617 0 01-.176-7.558v-12.54c0-4.609-.8-8.437-2.402-11.484-1.601-3.047-3.691-5.332-6.27-6.855-2.578-1.524-5.39-2.285-8.437-2.285-3.125 0-6.055.703-8.789 2.109-2.734 1.406-5.43 3.594-8.086 6.563l-.351-.118.703-6.445-2.461-1.875-17.344 4.688v4.335l7.5 1.641c.312 1.563.547 3.496.703 5.8.156 2.306.234 4.747.234 7.325l-.117 9.024c0 2.5-.02 4.57-.058 6.21-.04 1.641-.098 2.95-.176 3.926-.078.977-.156 1.66-.234 2.051l-7.266 1.875.351 4.57h26.016zm118.378 1.172c.938 0 1.895-.02 2.871-.058.977-.04 1.934-.176 2.871-.41l.118-4.57a22.328 22.328 0 01-5.508-2.11c-1.719-.938-3.438-2.285-5.156-4.043-1.72-1.758-3.594-4.082-5.625-6.973l-11.205-16.35.405-.135c.53-.18 1.05-.376 1.561-.586l.508-.214c3.867-1.68 6.914-4.023 9.14-7.031 2.227-3.008 3.34-6.426 3.34-10.254 0-5.781-2.011-10.098-6.035-12.95-4.023-2.851-9.98-4.277-17.87-4.277H511.76l-.352 4.922 7.266 1.64c.156.313.293 1.212.41 2.696.117 1.484.195 3.477.234 5.977.04 2.5.059 5.507.059 9.023v20.39c0 1.72-.02 3.497-.059 5.333a245.992 245.992 0 00-.058 5.215c0 1.64-.02 3.066-.059 4.277a91.754 91.754 0 00-.058 2.52l-7.383 1.874.351 4.922h26.016l.352-4.922-6.797-1.875c-.078-.703-.176-1.855-.293-3.457-.118-1.601-.196-3.574-.235-5.918-.039-2.343-.058-5-.058-7.968l-.001-7.617h5.898l6.525 12.539c2.54 4.782 5.045 8.636 7.515 11.56l.336.393c2.578 2.968 5.313 5.117 8.203 6.445 2.89 1.328 6.211 1.992 9.961 1.992zm-38.437-60.176c0-1.289.02-2.246.058-2.87.04-.626.098-1.055.176-1.29h6.094c4.219 0 7.422 1.035 9.61 3.106 2.187 2.07 3.28 5.097 3.28 9.082 0 4.14-1.289 7.422-3.867 9.844-2.578 2.421-6.133 3.632-10.664 3.632h-4.688v-21.504zm82.823 59.942c.781 0 1.68-.137 2.695-.41a29.662 29.662 0 003.281-1.114l6.328-2.578v-3.984l-7.5-1.406c-.312-.703-.527-1.739-.644-3.106a54.684 54.684 0 01-.176-4.629l.352-18.515c-.078-5.078-1.973-9.16-5.684-12.246-3.71-3.086-8.613-4.63-14.707-4.63-2.031.313-4.18.9-6.445 1.758a33.753 33.753 0 00-6.387 3.223c-1.992 1.29-3.633 2.637-4.922 4.043-1.289 1.406-1.933 2.774-1.933 4.102 0 2.109 1.074 3.613 3.222 4.511 2.149.899 4.785.996 7.91.293l.352-5.625c.156-2.187.566-3.652 1.23-4.394s1.817-1.113 3.457-1.113c2.344 0 4.454.468 6.329 1.406 1.875.937 3.378 2.187 4.511 3.75 1.133 1.562 1.7 3.242 1.7 5.039v5.39l-18.047 5.86c-3.907 1.25-6.7 2.754-8.38 4.512-1.679 1.757-2.519 3.964-2.519 6.62 0 2.032.664 4.063 1.992 6.094 1.329 2.032 3.243 3.73 5.743 5.098 2.5 1.367 5.39 2.05 8.671 2.05 2.422 0 4.864-.76 7.325-2.284 1.882-1.165 3.775-2.73 5.68-4.695l.33-.346.962 3.107c.831 2.719 2.501 4.124 5.011 4.214l.263.005zm-15.469-8.086c-2.266 0-4.219-.762-5.86-2.285-1.64-1.524-2.46-3.262-2.46-5.215 0-1.563.41-2.832 1.23-3.809.82-.976 2.168-1.699 4.043-2.168l11.485-2.812v12.07c-1.25 1.406-2.579 2.461-3.985 3.164a9.828 9.828 0 01-4.453 1.055zm57.115 8.086c4.375 0 8.34-1.074 11.894-3.223 3.555-2.148 6.426-5.37 8.613-9.668l-3.28-2.93c-2.032 2.422-4.122 4.16-6.27 5.215-2.149 1.055-4.59 1.582-7.325 1.582-4.609 0-8.457-1.62-11.543-4.863-3.085-3.242-4.628-7.95-4.628-14.121 0-4.766.859-8.633 2.578-11.602 1.718-2.968 3.925-5.078 6.62-6.328 1.471-.682 2.959-1.084 4.464-1.208l.155-.01 5.753 5.554c1.306 1.234 2.41 2.113 3.311 2.64l.205.114c.937.508 2.109.762 3.515.762 1.485 0 2.695-.43 3.633-1.29.937-.859 1.406-2.07 1.406-3.632 0-1.719-.683-3.3-2.05-4.746-1.368-1.445-3.282-2.617-5.743-3.516-2.46-.898-5.41-1.347-8.847-1.347-5.235 0-9.922 1.23-14.063 3.691-4.14 2.461-7.402 5.762-9.785 9.902-2.383 4.141-3.574 8.75-3.574 13.828 0 5.079 1.133 9.512 3.398 13.301 2.266 3.79 5.293 6.719 9.082 8.79 3.79 2.07 7.95 3.105 12.48 3.105zm48.517 0c4.375 0 8.34-1.055 11.894-3.164 3.555-2.11 6.426-5.313 8.614-9.61l-3.164-2.93c-2.032 2.5-4.14 4.258-6.328 5.274-2.188 1.016-4.61 1.524-7.266 1.524-5 0-9.063-1.758-12.188-5.274-2.849-3.205-4.4-7.482-4.65-12.831l-.012-.294h33.373v-2.344c0-7.03-1.757-12.597-5.273-16.699-3.516-4.101-8.477-6.191-14.883-6.27-4.375-.077-8.457 1.016-12.246 3.282-3.789 2.266-6.855 5.43-9.2 9.492-2.343 4.063-3.515 8.867-3.515 14.414 0 5.078 1.094 9.531 3.281 13.36 2.188 3.828 5.157 6.796 8.907 8.906 3.75 2.11 7.968 3.164 12.656 3.164zm9.843-32.813h-22.877l.019-.234c.205-2.406.697-4.506 1.476-6.3l.172-.38c1.172-2.5 2.695-4.375 4.57-5.625 1.875-1.25 3.867-1.875 5.977-1.875 3.359 0 5.976 1.192 7.851 3.574 1.875 2.383 2.813 5.645 2.813 9.786l-.001 1.054zm96.133 33.047c.938 0 1.895-.02 2.871-.058.977-.04 1.934-.176 2.871-.41l.118-4.57a22.328 22.328 0 01-5.508-2.11c-1.719-.938-3.438-2.285-5.156-4.043-1.72-1.758-3.594-4.082-5.625-6.973l-11.205-16.35.405-.135c.53-.18 1.05-.376 1.562-.586l.507-.214c3.867-1.68 6.914-4.023 9.14-7.031 2.227-3.008 3.34-6.426 3.34-10.254 0-5.781-2.011-10.098-6.035-12.95-4.023-2.851-9.98-4.277-17.87-4.277h-27.188l-.352 4.922 7.266 1.64c.156.313.293 1.212.41 2.696.117 1.484.195 3.477.234 5.977.04 2.5.059 5.507.059 9.023v20.39c0 1.72-.02 3.497-.059 5.333a245.992 245.992 0 00-.058 5.215c0 1.64-.02 3.066-.059 4.277a91.754 91.754 0 00-.058 2.52l-7.383 1.874.351 4.922h26.016l.352-4.922-6.797-1.875c-.078-.703-.176-1.855-.293-3.457-.117-1.601-.196-3.574-.235-5.918-.039-2.343-.058-5-.058-7.968l-.001-7.617h5.898l6.525 12.539c2.54 4.782 5.045 8.636 7.515 11.56l.336.393c2.578 2.968 5.313 5.117 8.203 6.445 2.891 1.328 6.211 1.992 9.961 1.992zm-38.437-60.176c0-1.289.02-2.246.058-2.87.04-.626.098-1.055.176-1.29h6.094c4.219 0 7.422 1.035 9.61 3.106 2.187 2.07 3.28 5.097 3.28 9.082 0 4.14-1.289 7.422-3.867 9.844-2.578 2.421-6.132 3.632-10.664 3.632h-4.688v-21.504zm69.58 59.942c4.376 0 8.34-1.055 11.895-3.164 3.555-2.11 6.426-5.313 8.613-9.61l-3.164-2.93c-2.03 2.5-4.14 4.258-6.328 5.274-2.187 1.016-4.61 1.524-7.265 1.524-5 0-9.063-1.758-12.188-5.274-2.85-3.205-4.4-7.482-4.65-12.831l-.012-.294h33.373v-2.344c0-7.03-1.758-12.597-5.273-16.699-3.516-4.101-8.477-6.191-14.883-6.27-4.375-.077-8.457 1.016-12.246 3.282-3.79 2.266-6.856 5.43-9.2 9.492-2.343 4.063-3.515 8.867-3.515 14.414 0 5.078 1.094 9.531 3.281 13.36 2.188 3.828 5.156 6.796 8.906 8.906 3.75 2.11 7.97 3.164 12.657 3.164zm9.844-32.813h-22.877l.019-.234c.205-2.406.697-4.506 1.476-6.3l.171-.38c1.172-2.5 2.696-4.375 4.57-5.625 1.876-1.25 3.868-1.875 5.977-1.875 3.36 0 5.977 1.192 7.852 3.574 1.875 2.383 2.812 5.645 2.812 9.786v1.054zm42.175 31.875l.234-4.687-7.617-1.758c-.156-.86-.293-3.184-.41-6.973a428.587 428.587 0 01-.176-13.066l.117-18.399c0-5.546.02-10.312.059-14.296.039-3.985.117-7.578.234-10.782.117-3.203.215-6.445.293-9.726L883.376 171l-18.633 5.156.235 4.102 8.671 1.172c.079.86.137 2.285.176 4.277.04 1.992.078 4.336.117 7.031.04 2.696.079 5.528.118 8.496.039 2.97.058 5.86.058 8.672v15.624c-.003 3.406-.022 6.48-.058 9.22-.04 2.969-.098 5.39-.176 7.266-.078 1.875-.195 3.203-.352 3.984l-7.617 1.758.352 4.687h26.953zm42.82.938c.781 0 1.68-.137 2.695-.41a29.662 29.662 0 003.281-1.114l6.329-2.578v-3.984l-7.5-1.406c-.313-.703-.528-1.739-.645-3.106a54.684 54.684 0 01-.176-4.629l.352-18.515c-.078-5.078-1.973-9.16-5.684-12.246-3.71-3.086-8.613-4.63-14.707-4.63-2.031.313-4.18.9-6.445 1.758a33.753 33.753 0 00-6.387 3.223c-1.992 1.29-3.633 2.637-4.922 4.043-1.289 1.406-1.933 2.774-1.933 4.102 0 2.109 1.074 3.613 3.222 4.511 2.149.899 4.786.996 7.91.293l.352-5.625c.156-2.187.567-3.652 1.23-4.394.665-.742 1.817-1.113 3.458-1.113 2.343 0 4.453.468 6.328 1.406 1.875.937 3.379 2.187 4.511 3.75 1.133 1.562 1.7 3.242 1.7 5.039v5.39l-18.047 5.86c-3.906 1.25-6.7 2.754-8.38 4.512-1.679 1.757-2.519 3.964-2.519 6.62 0 2.032.664 4.063 1.993 6.094 1.328 2.032 3.242 3.73 5.742 5.098 2.5 1.367 5.39 2.05 8.672 2.05 2.421 0 4.863-.76 7.324-2.284 1.882-1.165 3.775-2.73 5.68-4.695l.33-.346.962 3.107c.831 2.719 2.501 4.124 5.011 4.214l.263.005zm-15.469-8.086c-2.265 0-4.219-.762-5.86-2.285-1.64-1.524-2.46-3.262-2.46-5.215 0-1.563.41-2.832 1.23-3.809.82-.976 2.168-1.699 4.043-2.168l11.485-2.812v12.07c-1.25 1.406-2.578 2.461-3.985 3.164a9.828 9.828 0 01-4.453 1.055zm54.302 8.086c3.047 0 5.957-.801 8.73-2.403 2.774-1.601 4.825-3.808 6.153-6.62l-2.344-3.048a14.435 14.435 0 01-3.984 2.637c-1.484.664-3.086.996-4.805.996-3.125 0-5.527-.898-7.207-2.695-1.68-1.797-2.52-4.57-2.52-8.32l.21-25.664h17.252v-6.446h-17.17l.177-10.898h-2.812l-16.64 14.414v2.93h8.202l-.351 27.304c0 5.938 1.601 10.39 4.805 13.36 3.203 2.968 7.304 4.453 12.304 4.453zm28.688-64.453c2.344 0 4.238-.743 5.684-2.227 1.445-1.484 2.168-3.32 2.168-5.508 0-2.11-.723-3.925-2.168-5.449-1.446-1.523-3.34-2.285-5.684-2.285-2.344 0-4.277.762-5.8 2.285-1.524 1.524-2.286 3.34-2.286 5.45 0 2.187.762 4.023 2.285 5.507 1.524 1.484 3.457 2.227 5.801 2.227zm13.594 63.515l.351-4.687-7.851-1.758c-.235-.625-.41-2.11-.528-4.453-.117-2.344-.175-5.117-.175-8.32V218.46c0-3.203.058-6.016.175-8.438.118-2.421.293-4.843.528-7.265l-2.227-1.758-18.281 4.688v4.335l7.852 1.641c.312 1.563.546 3.535.703 5.918.156 2.383.234 5.02.234 7.91l-.117 8.32c0 2.657-.02 4.825-.059 6.504-.039 1.68-.097 2.97-.176 3.868-.078.898-.156 1.504-.234 1.816l-7.851 1.758.351 4.687h27.305zm31.019.938c4.687 0 8.945-1.192 12.773-3.574 3.828-2.383 6.875-5.606 9.14-9.668 2.267-4.063 3.4-8.594 3.4-13.594 0-5.078-1.055-9.55-3.165-13.418-2.11-3.867-5.02-6.895-8.73-9.082-3.711-2.188-8.028-3.281-12.95-3.281-4.765 0-9.16 1.093-13.183 3.28-4.023 2.188-7.266 5.255-9.727 9.2-2.46 3.945-3.691 8.613-3.691 14.004 0 5.078 1.094 9.59 3.281 13.535 2.188 3.945 5.254 7.031 9.2 9.258 3.945 2.227 8.496 3.34 13.652 3.34zm1.172-6.094c-2.813 0-5.352-.957-7.617-2.871-2.266-1.914-4.024-4.55-5.274-7.91-1.25-3.36-1.875-7.188-1.875-11.485 0-5.546 1.152-10 3.457-13.359 2.305-3.36 5.332-5.039 9.082-5.039 4.219 0 7.617 2.09 10.195 6.27 2.579 4.18 3.868 9.667 3.868 16.464 0 3.516-.489 6.641-1.465 9.375-.977 2.735-2.344 4.844-4.102 6.328-1.758 1.485-3.847 2.227-6.27 2.227zm55.85 5.156l.352-4.57-7.266-1.875c-.156-.703-.293-2.188-.41-4.453-.117-2.266-.176-5.04-.176-8.32v-17.579c1.484-2.03 3.242-3.613 5.274-4.746 2.03-1.132 4.257-1.699 6.68-1.699 1.874 0 3.652.45 5.331 1.348 1.68.898 3.067 2.344 4.16 4.336 1.094 1.992 1.641 4.629 1.641 7.91v11.719c0 1.875-.02 3.574-.059 5.097a82.168 82.168 0 01-.175 3.867c-.078 1.055-.196 1.895-.352 2.52l-6.797 1.875.352 4.57h25.547l.234-4.57-7.266-1.875c-.156-.703-.293-2.207-.41-4.512a149.618 149.618 0 01-.176-7.558v-12.54c0-4.609-.8-8.437-2.402-11.484-1.601-3.047-3.691-5.332-6.27-6.855-2.578-1.524-5.39-2.285-8.437-2.285-3.125 0-6.055.703-8.789 2.109-2.734 1.406-5.43 3.594-8.086 6.563l-.351-.118.703-6.445-2.461-1.875-17.344 4.688v4.335l7.5 1.641c.312 1.563.547 3.496.703 5.8.156 2.306.234 4.747.234 7.325l-.117 9.024c0 2.5-.02 4.57-.058 6.21-.04 1.641-.098 2.95-.176 3.926-.078.977-.156 1.66-.234 2.051l-7.266 1.875.351 4.57h26.016zm57.506.938c6.094 0 11.074-1.406 14.941-4.219 3.868-2.812 5.801-6.406 5.801-10.781 0-3.36-1.055-6.192-3.164-8.496-2.11-2.305-5.742-4.59-10.898-6.856-4.532-2.031-7.696-3.75-9.493-5.156-1.796-1.406-2.695-3.164-2.695-5.273 0-1.875.8-3.418 2.402-4.63 1.602-1.21 3.731-1.816 6.387-1.816 1.172 0 2.305.137 3.399.41 1.093.274 2.03.645 2.812 1.114l2.813 7.968h6.093l-1.289-12.656c-1.64-.703-3.632-1.25-5.976-1.64a42.01 42.01 0 00-6.914-.586c-4.14 0-7.774.644-10.899 1.933-3.125 1.29-5.586 3.047-7.383 5.274-1.796 2.226-2.695 4.785-2.695 7.675 0 3.594 1.133 6.563 3.399 8.907 2.265 2.343 6.21 4.648 11.836 6.914 4.296 1.719 7.167 3.3 8.613 4.746 1.445 1.445 2.168 3.144 2.168 5.097 0 1.954-.762 3.536-2.285 4.747-1.524 1.21-3.575 1.816-6.153 1.816-3.515 0-6.64-.938-9.375-2.813l-2.343-8.437h-6.329l.586 13.008c2.11 1.094 4.668 1.992 7.676 2.695a39.276 39.276 0 008.965 1.055z" fill="#000"/></g></g></svg>